<svg width="32" height="32" viewBox="0 0 32 32" fill="none" xmlns="http://www.w3.org/2000/svg">
<path d="M7.85352 25.3775C7.85352 25.3775 8.92786 26.5121 9.31738 25.7177C10.98 22.327 13.0675 19.3211 15.4828 16.8262C15.8895 16.406 15.8895 15.594 15.4828 15.1739C13.0675 12.6789 10.98 9.67298 9.31738 6.28229C8.92785 5.48787 7.85352 6.62248 7.85352 6.62248C10.1183 10.8221 11.2724 12.6839 14.2085 15.9104C11.2948 19.3113 10.2292 21.0527 7.85352 25.3775Z" fill="#F0F3F8"/>
<path d="M17.5605 22.9996C17.5605 22.9996 18.6349 24.1342 19.0244 23.3398C20.687 19.9491 21.4252 19.3208 23.8404 16.8258C24.2471 16.4057 24.2471 15.5937 23.8404 15.1735C21.4252 12.6785 20.687 12.0502 19.0244 8.65947C18.6349 7.86506 17.5605 8.99966 17.5605 8.99966C19.8253 13.1993 19.63 12.6835 22.5661 15.91C19.6524 19.3109 19.9363 18.6748 17.5605 22.9996Z" fill="#F0F3F8"/>
</svg>
