<svg width="32" height="32" viewBox="0 0 32 32" fill="none" xmlns="http://www.w3.org/2000/svg">
<path d="M24.1465 6.62248C24.1465 6.62248 23.0721 5.48787 22.6826 6.28229C21.02 9.67298 18.9325 12.6789 16.5172 15.1738C16.1105 15.594 16.1105 16.406 16.5172 16.8261C18.9325 19.3211 21.02 22.327 22.6826 25.7177C23.0721 26.5121 24.1465 25.3775 24.1465 25.3775C21.8817 21.1779 20.7276 19.3161 17.7915 16.0896C20.7052 12.6887 21.7708 10.9473 24.1465 6.62248Z" fill="#353535"/>
<path d="M14.4395 9.0004C14.4395 9.0004 13.3651 7.8658 12.9756 8.66022C11.313 12.0509 10.5748 12.6792 8.15958 15.1742C7.75286 15.5943 7.75286 16.4063 8.15958 16.8265C10.5748 19.3215 11.313 19.9498 12.9756 23.3405C13.3651 24.1349 14.4394 23.0003 14.4394 23.0003C12.1747 18.8007 12.37 19.3165 9.43387 16.09C12.3476 12.6891 12.0637 13.3252 14.4395 9.0004Z" fill="#353535"/>
</svg>
