<svg width="54" height="16" viewBox="0 0 54 16" fill="none" xmlns="http://www.w3.org/2000/svg">
<path fill-rule="evenodd" clip-rule="evenodd" d="M29.9633 0.00585938H28.3086V15.9999H29.8289H29.9633H51.6563H53.311V15.0185V8.25677V7.2896V7.27525H50.1234V0.0181086H49.0777H48.4687H29.9633V0.00585938ZM29.9633 0.999447V7.27525H48.4687V0.999622L29.9633 0.999447ZM51.6563 15.0185H29.9633V8.25659L51.6563 8.25677V15.0185Z" fill="#fff"/>
<path fill-rule="evenodd" clip-rule="evenodd" d="M1.6547 15.9999V1.24211L15.615 10.8162L15.6155 10.8168L15.6157 10.8166L15.616 10.8168L15.6164 10.8161L17.3939 9.59714L18.0992 9.12414V7.56292L16.6711 8.5433L15.6157 9.26713L2.11144 0.00585938L2.11107 0.0063971V0.00590988H1.6547H1.28932H0V15.9999H1.6547Z" fill="#fff"/>
<path fill-rule="evenodd" clip-rule="evenodd" d="M15.6289 6.23893V6.24608L17.8392 4.7188L19.6177 3.49917L22.9121 1.23982H22.9124V16H24.5671V0.0059715H23.2736H22.9124H22.4518V0.00616836L18.8949 2.44534L17.1165 3.66497L16.2273 4.27479L15.629 4.67844V4.67969L12.0672 2.24417L9.92303 0.778067L8.77793 0H6.51562L7.05177 0.375395L15.6283 6.23978L15.6289 6.23893Z" fill="#fff"/>
</svg>
