<svg width="32" height="32" viewBox="0 0 32 32" fill="none" xmlns="http://www.w3.org/2000/svg">
<path d="M14.832 16.0063H20.4024" stroke="#37A497" stroke-linecap="round" stroke-linejoin="round"/>
<path d="M14.832 21.3286L22.8354 21.3353" stroke="#37A497" stroke-linecap="round" stroke-linejoin="round"/>
<rect x="3.99414" y="3.99512" width="24.01" height="24.01" rx="2.66667" stroke="#37A497" stroke-linecap="round" stroke-linejoin="round"/>
<path d="M14.832 10.6577L22.8354 10.6577" stroke="#37A497" stroke-linecap="round" stroke-linejoin="round"/>
<path d="M9.49764 10.3305C9.31364 10.3313 9.16501 10.4809 9.1655 10.6649C9.16599 10.8489 9.31542 10.9977 9.49942 10.9975C9.68341 10.9972 9.83245 10.848 9.83245 10.664C9.83281 10.5752 9.7976 10.49 9.7347 10.4274C9.67179 10.3647 9.58642 10.3298 9.49764 10.3305" stroke="#37A497" stroke-linecap="round" stroke-linejoin="round"/>
<path d="M9.49764 15.6665C9.31364 15.6672 9.16501 15.8168 9.1655 16.0008C9.16599 16.1848 9.31542 16.3337 9.49942 16.3334C9.68341 16.3332 9.83245 16.184 9.83245 16C9.83281 15.9112 9.7976 15.8259 9.7347 15.7633C9.67179 15.7006 9.58642 15.6658 9.49764 15.6665" stroke="#37A497" stroke-linecap="round" stroke-linejoin="round"/>
<path d="M9.49764 21.0019C9.31364 21.0027 9.16501 21.1523 9.1655 21.3363C9.16599 21.5203 9.31542 21.6691 9.49942 21.6689C9.68341 21.6686 9.83245 21.5194 9.83245 21.3354C9.83281 21.2466 9.7976 21.1614 9.7347 21.0987C9.67179 21.0361 9.58642 21.0012 9.49764 21.0019" stroke="#37A497" stroke-linecap="round" stroke-linejoin="round"/>
</svg>
