<svg width="32" height="32" viewBox="0 0 32 32" fill="none" xmlns="http://www.w3.org/2000/svg">
<path fill-rule="evenodd" clip-rule="evenodd" d="M10.3131 27.7709C9.63725 28.1236 8.81966 28.0615 8.20489 27.6107C7.59013 27.1599 7.28511 26.3988 7.4184 25.6482L8.49706 19.4655L3.95573 15.1135C3.40063 14.5842 3.19719 13.784 3.43207 13.0538C3.66695 12.3236 4.29877 11.792 5.05839 11.6855L11.3637 10.7842L14.2104 5.10554C14.5479 4.42451 15.2423 3.99365 16.0024 3.99365C16.7625 3.99365 17.4569 4.42451 17.7944 5.10554L20.6411 10.7842L26.9464 11.6855C27.706 11.792 28.3378 12.3236 28.5727 13.0538C28.8076 13.784 28.6042 14.5842 28.0491 15.1135L23.5077 19.4655L24.5864 25.6495C24.7197 26.4001 24.4147 27.1612 23.7999 27.6121C23.1851 28.0629 22.3675 28.125 21.6917 27.7722L16.0024 24.8322L10.3131 27.7709Z" fill="#37A497"/>
</svg>
