<svg width="32" height="32" viewBox="0 0 32 32" fill="none" xmlns="http://www.w3.org/2000/svg">
<path d="M29.3421 22.6695V18.6678C29.3421 17.5616 27.1011 16.667 24.34 16.667C21.5788 16.667 19.3393 17.5631 19.3379 18.6678V26.6712C19.3393 27.7759 21.5774 28.672 24.34 28.672C27.1026 28.672 29.3406 27.7759 29.3421 26.6712V18.6678" stroke="#37A497" stroke-linecap="round" stroke-linejoin="round"/>
<path d="M10.1719 18.4887L15.0486 15.5154V9.31152" stroke="#37A497" stroke-linecap="round" stroke-linejoin="round"/>
<path d="M26.3629 11.9983C24.965 5.8751 19.0825 1.86523 12.872 2.80209C6.66155 3.73895 2.22373 9.30565 2.69435 15.5688C3.16497 21.8318 8.38485 26.6729 14.6656 26.6711" stroke="#37A497" stroke-linecap="round" stroke-linejoin="round"/>
<path d="M19.3379 18.6675C19.3379 19.7722 21.5774 20.6683 24.34 20.6683C27.1026 20.6683 29.3406 19.7722 29.3406 18.6675" stroke="#37A497" stroke-linecap="round" stroke-linejoin="round"/>
<path d="M19.3379 22.6694C19.3379 23.7742 21.5774 24.6703 24.34 24.6703C27.1026 24.6703 29.3421 23.7742 29.3421 22.6694" stroke="#37A497" stroke-linecap="round" stroke-linejoin="round"/>
</svg>
